<?xml version="1.0" standalone="no"?>
<!DOCTYPE svg PUBLIC "-//W3C//DTD SVG 20010904//EN"
 "http://www.w3.org/TR/2001/REC-SVG-20010904/DTD/svg10.dtd">
<svg version="1.0" xmlns="http://www.w3.org/2000/svg"
 width="280.000000pt" height="280.000000pt" viewBox="0 0 280.000000 280.000000"
 preserveAspectRatio="xMidYMid meet">
<metadata>
Created by potrace 1.11, written by Peter Selinger 2001-2013
</metadata>
<g transform="translate(0.000000,280.000000) scale(0.100000,-0.100000)"
fill="#000000" stroke="none">
<path d="M545 2385 c-137 -30 -252 -91 -341 -179 -114 -115 -156 -214 -159
-384 -3 -132 11 -204 56 -295 40 -80 160 -199 255 -253 66 -38 266 -134 279
-134 3 0 31 -16 61 -35 77 -50 94 -93 63 -167 -37 -90 -207 -59 -436 79 -116
70 -164 57 -215 -56 -17 -36 -48 -104 -69 -149 -41 -89 -52 -170 -26 -203 18
-24 229 -124 322 -154 227 -71 489 -73 660 -5 194 77 322 212 391 415 24 71
29 289 8 370 -22 86 -69 167 -130 229 -69 70 -134 112 -269 175 -228 107 -276
137 -299 186 -24 49 -20 64 20 81 64 27 166 1 327 -83 81 -43 97 -48 132 -42
47 8 46 8 143 191 105 200 100 229 -61 306 -73 36 -197 83 -197 76 0 -2 -8 0
-17 5 -18 9 -49 15 -153 31 -84 12 -278 9 -345 -5z"/>
<path d="M1508 2347 l-23 -23 0 -931 0 -931 24 -21 c23 -20 35 -21 268 -21
147 0 252 4 263 10 40 21 42 41 42 396 l0 344 239 0 c145 0 248 4 259 10 30
16 40 42 61 163 31 177 35 239 14 270 -9 15 -21 25 -25 22 -5 -3 -11 -2 -14 3
-2 4 -119 7 -258 7 -139 -1 -258 1 -264 3 -8 2 -12 43 -13 122 l-1 119 333 3
c280 3 336 5 348 18 9 8 16 18 17 23 1 4 3 8 3 10 7 11 4 377 -3 377 -5 0 -7
4 -3 9 3 5 -5 17 -17 25 -20 14 -94 16 -625 16 l-602 0 -23 -23z"/>
</g>
</svg>
